<svg xmlns="http://www.w3.org/2000/svg" viewBox="0 0 100 100"><path fill="currentColor" fill-rule="evenodd" d="M46.59 11.93L53.69 11.93L55.97 13.35L58.24 13.07L59.09 13.64L61.93 13.92L65.06 15.91L68.18 16.48L69.32 17.90L71.59 18.75L75.85 23.30L76.99 23.86L78.13 25.57L79.26 26.14L80.11 28.13L81.53 29.26L82.39 32.10L83.81 33.24L84.38 36.93L86.08 39.77L86.65 42.05L86.65 56.25L84.66 60.51L83.52 65.34L82.67 65.91L81.53 68.75L80.40 69.32L79.26 72.16L77.56 73.30L76.99 75.28L76.99 77.27L77.84 79.83L78.41 79.83L79.83 81.53L81.82 82.10L82.39 83.24L81.25 84.38L78.69 84.94L77.27 86.36L73.86 86.36L71.59 87.22L69.32 86.93L67.33 88.35L55.68 88.35L53.69 86.93L49.15 87.22L44.60 85.80L41.48 85.80L39.49 84.38L36.93 84.09L34.94 82.39L31.82 81.53L30.68 80.11L28.41 79.26L27.56 77.84L25.85 77.27L25.00 75.57L23.01 74.43L22.44 72.73L18.75 69.60L17.90 66.48L16.19 64.20L15.91 61.36L13.64 56.25L13.64 42.05L14.20 39.77L15.91 36.93L16.48 33.24L17.90 32.10L18.75 29.26L20.17 28.13L21.02 26.14L22.16 25.57L26.14 21.02L26.70 21.02L28.69 18.75L30.97 17.90L32.10 16.48L35.23 15.91L38.35 13.92L41.19 13.64L42.05 13.07L44.32 13.35ZM30.68 38.35L29.26 39.49L27.56 43.18L27.56 45.74L29.26 49.43L30.97 50.57L31.82 51.99L33.52 52.56L37.78 52.56L39.77 51.70L40.06 50.85L40.63 50.85L40.63 50.28L41.48 50.00L43.18 48.01L43.18 45.17L42.33 44.60L40.63 45.17L37.22 44.60L36.65 43.75L34.66 43.18L33.81 41.19L31.25 38.35ZM69.32 38.35L66.48 41.19L65.63 43.18L64.20 43.47L61.65 45.17L59.66 45.17L58.81 44.60L57.10 45.17L57.10 48.01L58.81 50.00L59.66 50.28L59.66 50.85L60.23 50.85L60.51 51.70L62.50 52.56L66.76 52.56L68.47 51.99L68.47 51.42L71.02 49.43L72.73 45.74L72.73 43.18L71.02 39.49Z"/></svg>
